<svg width="68" height="88" viewBox="0 0 68 88" xmlns="http://www.w3.org/2000/svg"><title>doc</title><g fill-rule="evenodd"><path d="M2.454 0C1.12.135-.006 1.39 0 2.734v82.532C0 86.698 1.3 88 2.727 88h62.546C66.701 88 68 86.698 68 85.266v-64.01c0-.98-.424-1.512-1.023-2.152L48.707.99c-.75-.706-1.444-.952-2.452-.99h-43.8zm3 5.468h38.414v15.789c0 1.431 1.299 2.734 2.727 2.734h15.951v58.541H5.454V5.468zM49.32 9.261l9.306 9.262H49.32V9.26z"/><path d="M14.744 17.93a2.726 2.726 0 0 0-2.367 1.365 2.74 2.74 0 0 0 0 2.738 2.726 2.726 0 0 0 2.367 1.365h21.952a2.726 2.726 0 0 0 2.368-1.365 2.74 2.74 0 0 0 0-2.738 2.726 2.726 0 0 0-2.368-1.365H14.744zm.077 11.973a2.726 2.726 0 0 0-2.367 1.366 2.74 2.74 0 0 0 0 2.738 2.726 2.726 0 0 0 2.367 1.365H53.16a2.726 2.726 0 0 0 2.368-1.365 2.74 2.74 0 0 0 0-2.738 2.726 2.726 0 0 0-2.368-1.366H14.821zm0 11.974a2.726 2.726 0 0 0-2.365 1.366 2.74 2.74 0 0 0 0 2.737 2.726 2.726 0 0 0 2.365 1.366H53.16a2.726 2.726 0 0 0 2.366-1.366 2.74 2.74 0 0 0 0-2.737 2.726 2.726 0 0 0-2.366-1.366H14.821zm0 23.986a2.726 2.726 0 0 0-2.365 1.366 2.74 2.74 0 0 0 0 2.737 2.726 2.726 0 0 0 2.365 1.365H53.16a2.726 2.726 0 0 0 2.366-1.365 2.74 2.74 0 0 0 0-2.737 2.726 2.726 0 0 0-2.366-1.366H14.821zm0-12.013a2.726 2.726 0 0 0-2.365 1.366 2.74 2.74 0 0 0 0 2.737 2.726 2.726 0 0 0 2.365 1.366H53.16a2.726 2.726 0 0 0 2.366-1.366 2.74 2.74 0 0 0 0-2.737 2.726 2.726 0 0 0-2.366-1.365H14.821z"/></g></svg>